<svg id="ImportedIcons" xmlns="http://www.w3.org/2000/svg" width="96" height="96" viewBox="0 0 96 96">
  <defs>
    <style>
      .cls-1 {
        fill: #b3b3b3;
      }
    </style>
  </defs>
  <path class="cls-1" d="M69.632,35.484a5.921,5.921,0,1,1,5.921-5.921h0A5.928,5.928,0,0,1,69.632,35.484Zm0-8.842a2.921,2.921,0,1,0,2.921,2.921h0A2.925,2.925,0,0,0,69.632,26.642Z"/>
  <path class="cls-1" d="M52.7,57.668a1.5001,1.5001,0,0,1-.628-.138l-8.158-3.768a1.51124,1.51124,0,0,1-.437-.306L9.418,19.1a1.5,1.5,0,0,1,.009-2.121l4.452-4.419a1.5,1.5,0,0,1,1.057-.436h.006a1.5,1.5,0,0,1,1.06.444L50.063,46.925a1.5081,1.5081,0,0,1,.3.438L54.07,55.55a1.5,1.5,0,0,1-1.37,2.118Zm-7.28-6.516,4.256,1.965-1.934-4.272-32.814-33.1L12.6,18.053Z"/>
  <path class="cls-1" d="M37.588,87.683A3.685,3.685,0,0,1,34.964,86.6l-21.1-21.1a3.717,3.717,0,0,1-.007-5.24l14.578-14.8a1.5,1.5,0,1,1,2.23449,2.00177q-.046.0513-.09649.09823L15.986,62.362a.714.714,0,0,0,0,1.009l21.1,21.1a.711.711,0,0,0,1.005,0L82.5,40V18.5a.711.711,0,0,0-.71-.71h0l-21.483.01L43.561,34.56a1.5,1.5,0,1,1-2.15882-2.08315L41.439,32.44l17.185-17.2a1.5,1.5,0,0,1,1.06-.44l22.1-.017h0a3.711,3.711,0,0,1,3.71,3.71V40.616a1.5,1.5,0,0,1-.438,1.06L40.214,86.594a3.687,3.687,0,0,1-2.625,1.088Z"/>
</svg>
