<svg id="ImportedIcons" xmlns="http://www.w3.org/2000/svg" width="96" height="96" viewBox="0 0 96 96">
  <defs>
    <style>
      .cls-1 {
        fill: #b3b3b3;
      }
    </style>
  </defs>
  <path class="cls-1" d="M40.079,47.362l-8.652-8.2a1.5,1.5,0,1,0-2.07643,2.16528L29.364,41.34,36.458,48H8.5a1.5,1.5,0,0,0,0,3H36.394l-7.028,6.661a1.5,1.5,0,0,0,2.063,2.178l8.65-8.2a2.946,2.946,0,0,0,.11327-4.16473q-.05508-.05817-.11327-.11327Z"/>
  <path class="cls-1" d="M83.871,73H81.5a1.5,1.5,0,0,1,0-3h2.371A.13.13,0,0,0,84,69.871V35.48L70.52,22H67.5a1.5,1.5,0,0,1,0-3h3.641a1.5,1.5,0,0,1,1.061.439L86.561,33.8A1.5,1.5,0,0,1,87,34.859V69.871A3.133,3.133,0,0,1,83.871,73Z"/>
  <path class="cls-1" d="M56.612,35.5a1.49178,1.49178,0,0,0,.286-.464c.007-.018.011-.036.017-.055A1.48494,1.48494,0,0,0,57,34.5v-.084a1.494,1.494,0,0,0-.12-.519c0-.009-.01-.017-.014-.026a1.49981,1.49981,0,0,0-.326-.456l-.009-.013-15-14c-.007-.007-.017-.008-.025-.015a1.49289,1.49289,0,0,0-.465-.286c-.017-.007-.034-.01-.052-.016A1.486,1.486,0,0,0,40.5,19H18.129A3.133,3.133,0,0,0,15,22.129v20.78a1.5,1.5,0,0,0,3,0V22.129A.13.13,0,0,1,18.129,22H39V32.871A3.133,3.133,0,0,0,42.129,36H55.5c.03,0,.057-.007.087-.009a1.51034,1.51034,0,0,0,.212-.021,1.48709,1.48709,0,0,0,.287-.089c.012,0,.022-.013.034-.018a1.50021,1.50021,0,0,0,.228-.126c.025-.017.046-.039.07-.058a1.50513,1.50513,0,0,0,.161-.139c.006-.006.013-.01.018-.016S56.605,35.506,56.612,35.5ZM42,32.871V23.952L51.694,33H42.129A.13.13,0,0,1,42,32.871Z"/>
  <path class="cls-1" d="M77.612,35.5a1.49178,1.49178,0,0,0,.286-.464c.007-.018.011-.036.017-.055A1.48494,1.48494,0,0,0,78,34.5v-.084a1.49381,1.49381,0,0,0-.12-.519c0-.009-.01-.017-.014-.026a1.5,1.5,0,0,0-.326-.456l-.009-.013-15-14c-.007-.007-.017-.008-.025-.015a1.493,1.493,0,0,0-.465-.286c-.017-.007-.034-.01-.052-.016A1.486,1.486,0,0,0,61.5,19H48.514a1.5,1.5,0,0,0,0,3H60V32.871A3.133,3.133,0,0,0,63.129,36H76.5c.03,0,.057-.007.087-.009a1.51049,1.51049,0,0,0,.212-.021,1.48731,1.48731,0,0,0,.287-.089c.012,0,.022-.013.034-.018a1.50059,1.50059,0,0,0,.228-.126c.025-.017.046-.039.07-.058a1.50513,1.50513,0,0,0,.161-.139c.006-.006.013-.01.018-.016S77.605,35.506,77.612,35.5ZM63,32.871V23.952L72.694,33H63.129A.13.13,0,0,1,63,32.871Z"/>
  <path class="cls-1" d="M53.871,73H18.129A3.133,3.133,0,0,1,15,69.871V55.182a1.5,1.5,0,0,1,3,0V69.871a.13.13,0,0,0,.129.129H53.871A.13.13,0,0,0,54,69.871V40.5a1.5,1.5,0,0,1,3,0V69.871A3.133,3.133,0,0,1,53.871,73Z"/>
  <path class="cls-1" d="M74.871,73H61.007a1.5,1.5,0,0,1,0-3H74.871A.13.13,0,0,0,75,69.871V40.5a1.5,1.5,0,0,1,3,0V69.871A3.133,3.133,0,0,1,74.871,73Z"/>
</svg>
